<svg id="visual" viewBox="0 0 960 540" width="960" height="540" xmlns="http://www.w3.org/2000/svg" xmlns:xlink="http://www.w3.org/1999/xlink" version="1.1"><rect x="0" y="0" width="960" height="540" fill="#001220"></rect><defs><linearGradient id="grad1_0" x1="43.8%" y1="0%" x2="100%" y2="100%"><stop offset="14.444444444444446%" stop-color="#fbae3c" stop-opacity="1"></stop><stop offset="85.55555555555554%" stop-color="#fbae3c" stop-opacity="1"></stop></linearGradient></defs><defs><linearGradient id="grad1_1" x1="43.8%" y1="0%" x2="100%" y2="100%"><stop offset="14.444444444444446%" stop-color="#fbae3c" stop-opacity="1"></stop><stop offset="85.55555555555554%" stop-color="#f48350" stop-opacity="1"></stop></linearGradient></defs><defs><linearGradient id="grad1_2" x1="43.8%" y1="0%" x2="100%" y2="100%"><stop offset="14.444444444444446%" stop-color="#d96162" stop-opacity="1"></stop><stop offset="85.55555555555554%" stop-color="#f48350" stop-opacity="1"></stop></linearGradient></defs><defs><linearGradient id="grad1_3" x1="43.8%" y1="0%" x2="100%" y2="100%"><stop offset="14.444444444444446%" stop-color="#d96162" stop-opacity="1"></stop><stop offset="85.55555555555554%" stop-color="#af4b6d" stop-opacity="1"></stop></linearGradient></defs><defs><linearGradient id="grad1_4" x1="43.8%" y1="0%" x2="100%" y2="100%"><stop offset="14.444444444444446%" stop-color="#7c3e6b" stop-opacity="1"></stop><stop offset="85.55555555555554%" stop-color="#af4b6d" stop-opacity="1"></stop></linearGradient></defs><defs><linearGradient id="grad1_5" x1="43.8%" y1="0%" x2="100%" y2="100%"><stop offset="14.444444444444446%" stop-color="#7c3e6b" stop-opacity="1"></stop><stop offset="85.55555555555554%" stop-color="#49335c" stop-opacity="1"></stop></linearGradient></defs><defs><linearGradient id="grad1_6" x1="43.8%" y1="0%" x2="100%" y2="100%"><stop offset="14.444444444444446%" stop-color="#1d2540" stop-opacity="1"></stop><stop offset="85.55555555555554%" stop-color="#49335c" stop-opacity="1"></stop></linearGradient></defs><defs><linearGradient id="grad1_7" x1="43.8%" y1="0%" x2="100%" y2="100%"><stop offset="14.444444444444446%" stop-color="#1d2540" stop-opacity="1"></stop><stop offset="85.55555555555554%" stop-color="#001220" stop-opacity="1"></stop></linearGradient></defs><defs><linearGradient id="grad2_0" x1="0%" y1="0%" x2="56.3%" y2="100%"><stop offset="14.444444444444446%" stop-color="#fbae3c" stop-opacity="1"></stop><stop offset="85.55555555555554%" stop-color="#fbae3c" stop-opacity="1"></stop></linearGradient></defs><defs><linearGradient id="grad2_1" x1="0%" y1="0%" x2="56.3%" y2="100%"><stop offset="14.444444444444446%" stop-color="#f48350" stop-opacity="1"></stop><stop offset="85.55555555555554%" stop-color="#fbae3c" stop-opacity="1"></stop></linearGradient></defs><defs><linearGradient id="grad2_2" x1="0%" y1="0%" x2="56.3%" y2="100%"><stop offset="14.444444444444446%" stop-color="#f48350" stop-opacity="1"></stop><stop offset="85.55555555555554%" stop-color="#d96162" stop-opacity="1"></stop></linearGradient></defs><defs><linearGradient id="grad2_3" x1="0%" y1="0%" x2="56.3%" y2="100%"><stop offset="14.444444444444446%" stop-color="#af4b6d" stop-opacity="1"></stop><stop offset="85.55555555555554%" stop-color="#d96162" stop-opacity="1"></stop></linearGradient></defs><defs><linearGradient id="grad2_4" x1="0%" y1="0%" x2="56.3%" y2="100%"><stop offset="14.444444444444446%" stop-color="#af4b6d" stop-opacity="1"></stop><stop offset="85.55555555555554%" stop-color="#7c3e6b" stop-opacity="1"></stop></linearGradient></defs><defs><linearGradient id="grad2_5" x1="0%" y1="0%" x2="56.3%" y2="100%"><stop offset="14.444444444444446%" stop-color="#49335c" stop-opacity="1"></stop><stop offset="85.55555555555554%" stop-color="#7c3e6b" stop-opacity="1"></stop></linearGradient></defs><defs><linearGradient id="grad2_6" x1="0%" y1="0%" x2="56.3%" y2="100%"><stop offset="14.444444444444446%" stop-color="#49335c" stop-opacity="1"></stop><stop offset="85.55555555555554%" stop-color="#1d2540" stop-opacity="1"></stop></linearGradient></defs><defs><linearGradient id="grad2_7" x1="0%" y1="0%" x2="56.3%" y2="100%"><stop offset="14.444444444444446%" stop-color="#001220" stop-opacity="1"></stop><stop offset="85.55555555555554%" stop-color="#1d2540" stop-opacity="1"></stop></linearGradient></defs><g transform="translate(960, 0)"><path d="M0 405C-75.5 397.1 -151.1 389.3 -202.5 350.7C-253.9 312.2 -281.2 243.1 -310.9 179.5C-340.6 115.9 -372.8 58 -405 0L0 0Z" fill="#0c1c30"></path><path d="M0 354.4C-66.1 347.5 -132.2 340.6 -177.2 306.9C-222.2 273.2 -246 212.7 -272 157.1C-298.1 101.4 -326.2 50.7 -354.4 0L0 0Z" fill="#312c4f"></path><path d="M0 303.8C-56.7 297.8 -113.3 291.9 -151.9 263.1C-190.4 234.2 -210.9 182.3 -233.2 134.6C-255.5 87 -279.6 43.5 -303.7 0L0 0Z" fill="#623965"></path><path d="M0 253.1C-47.2 248.2 -94.4 243.3 -126.6 219.2C-158.7 195.1 -175.7 151.9 -194.3 112.2C-212.9 72.5 -233 36.2 -253.1 0L0 0Z" fill="#96446e"></path><path d="M0 202.5C-37.8 198.6 -75.5 194.6 -101.2 175.4C-127 156.1 -140.6 121.5 -155.5 89.8C-170.3 58 -186.4 29 -202.5 0L0 0Z" fill="#c55469"></path><path d="M0 151.9C-28.3 148.9 -56.7 146 -75.9 131.5C-95.2 117.1 -105.4 91.1 -116.6 67.3C-127.7 43.5 -139.8 21.7 -151.9 0L0 0Z" fill="#e9705a"></path><path d="M0 101.3C-18.9 99.3 -37.8 97.3 -50.6 87.7C-63.5 78.1 -70.3 60.8 -77.7 44.9C-85.2 29 -93.2 14.5 -101.2 0L0 0Z" fill="#fa9845"></path><path d="M0 50.6C-9.4 49.6 -18.9 48.7 -25.3 43.8C-31.7 39 -35.1 30.4 -38.9 22.4C-42.6 14.5 -46.6 7.2 -50.6 0L0 0Z" fill="#fbae3c"></path></g><g transform="translate(0, 540)"><path d="M0 -405C52.1 -362.7 104.2 -320.3 168.5 -291.9C232.8 -263.4 309.3 -248.8 350.7 -202.5C392.2 -156.2 398.6 -78.1 405 0L0 0Z" fill="#0c1c30"></path><path d="M0 -354.4C45.6 -317.3 91.2 -280.3 147.4 -255.4C203.7 -230.5 270.6 -217.7 306.9 -177.2C343.2 -136.7 348.8 -68.3 354.4 0L0 0Z" fill="#312c4f"></path><path d="M0 -303.7C39.1 -272 78.2 -240.2 126.4 -218.9C174.6 -197.5 232 -186.6 263.1 -151.9C294.1 -117.1 298.9 -58.6 303.8 0L0 0Z" fill="#623965"></path><path d="M0 -253.1C32.6 -226.7 65.1 -200.2 105.3 -182.4C145.5 -164.6 193.3 -155.5 219.2 -126.6C245.1 -97.6 249.1 -48.8 253.1 0L0 0Z" fill="#96446e"></path><path d="M0 -202.5C26.1 -181.3 52.1 -160.2 84.2 -145.9C116.4 -131.7 154.6 -124.4 175.4 -101.3C196.1 -78.1 199.3 -39 202.5 0L0 0Z" fill="#c55469"></path><path d="M0 -151.9C19.5 -136 39.1 -120.1 63.2 -109.4C87.3 -98.8 116 -93.3 131.5 -75.9C147.1 -58.6 149.5 -29.3 151.9 0L0 0Z" fill="#e9705a"></path><path d="M0 -101.2C13 -90.7 26.1 -80.1 42.1 -73C58.2 -65.8 77.3 -62.2 87.7 -50.6C98 -39 99.6 -19.5 101.3 0L0 0Z" fill="#fa9845"></path><path d="M0 -50.6C6.5 -45.3 13 -40 21.1 -36.5C29.1 -32.9 38.7 -31.1 43.8 -25.3C49 -19.5 49.8 -9.8 50.6 0L0 0Z" fill="#fbae3c"></path></g></svg>